<?xml version="1.0" standalone="no"?>
<!DOCTYPE svg PUBLIC "-//W3C//DTD SVG 20010904//EN"
 "http://www.w3.org/TR/2001/REC-SVG-20010904/DTD/svg10.dtd">
<svg version="1.0" xmlns="http://www.w3.org/2000/svg"
 width="206.000000pt" height="56.000000pt" viewBox="0 0 206.000000 56.000000"
 preserveAspectRatio="xMidYMid meet">

<g transform="translate(0.000000,56.000000) scale(0.100000,-0.100000)"
fill="#000000" stroke="none">
<path d="M1830 265 c0 -111 3 -135 14 -135 10 0 16 14 18 45 l3 45 35 -44 c23
-30 43 -45 58 -46 22 0 21 3 -16 47 l-40 47 34 40 c29 34 32 42 18 44 -10 3
-32 -13 -55 -40 l-38 -43 -1 88 c0 70 -3 87 -15 87 -13 0 -15 -22 -15 -135z"/>
<path d="M183 375 c-92 -40 -98 -187 -9 -229 40 -19 57 -20 109 -5 l37 10 0
59 0 60 -45 0 c-33 0 -45 -4 -45 -15 0 -9 9 -15 25 -15 22 0 25 -4 25 -34 0
-30 -4 -35 -29 -41 -33 -7 -85 15 -95 40 -3 9 -6 34 -6 55 0 73 63 113 138 87
18 -7 22 -5 22 11 0 32 -72 41 -127 17z"/>
<path d="M1210 259 l0 -131 60 4 c75 5 102 27 98 77 -2 25 -10 39 -26 47 l-22
11 20 18 c29 26 23 75 -10 92 -14 7 -46 13 -72 13 l-48 0 0 -131z m94 95 c9
-4 16 -18 16 -34 0 -29 -15 -40 -56 -40 -21 0 -24 5 -24 33 0 19 3 37 7 40 8
9 36 9 57 1z m14 -116 c16 -16 15 -53 -2 -67 -8 -7 -27 -11 -43 -9 -22 2 -29
9 -31 31 -2 16 -1 35 2 43 7 17 57 19 74 2z"/>
<path d="M370 220 c0 -83 1 -90 20 -90 18 0 20 7 20 58 0 60 11 82 42 82 11 0
18 7 18 20 0 11 -4 20 -10 20 -5 0 -19 -9 -30 -20 l-20 -20 0 20 c0 13 -7 20
-20 20 -19 0 -20 -7 -20 -90z"/>
<path d="M545 300 c-33 -13 -47 -37 -49 -81 -1 -65 52 -101 122 -83 37 10 27
34 -12 27 -38 -6 -76 10 -76 32 0 12 14 15 60 15 60 0 60 0 60 29 0 20 -9 36
-26 50 -28 22 -46 25 -79 11z m63 -32 c21 -21 13 -28 -33 -28 -25 0 -45 4 -45
8 0 15 24 32 45 32 12 0 26 -5 33 -12z"/>
<path d="M735 298 c-32 -17 -45 -39 -45 -76 0 -65 42 -99 107 -87 47 9 45 36
-2 28 -26 -4 -41 -1 -55 12 -32 29 -24 35 39 35 33 0 62 4 65 9 11 17 -17 72
-41 82 -31 11 -43 11 -68 -3z m73 -40 c3 -15 -4 -18 -43 -18 -43 0 -45 1 -35
21 14 26 73 24 78 -3z"/>
<path d="M890 220 c0 -83 1 -90 20 -90 18 0 20 7 20 64 0 70 12 90 52 84 21
-3 23 -8 26 -75 3 -65 5 -73 22 -73 18 0 20 7 20 70 0 57 -4 74 -20 90 -24 24
-48 25 -78 4 -20 -14 -22 -14 -22 0 0 9 -9 16 -20 16 -19 0 -20 -7 -20 -90z"/>
<path d="M1448 304 c-10 -3 -18 -11 -18 -19 0 -10 11 -12 40 -8 32 4 41 2 46
-12 8 -21 -11 -35 -47 -35 -28 0 -59 -27 -59 -52 0 -18 31 -48 51 -48 8 0 25
7 37 16 20 14 22 14 22 0 0 -9 9 -16 20 -16 18 0 20 7 20 68 0 39 -5 76 -13
85 -12 18 -69 29 -99 21z m72 -107 c0 -20 -21 -37 -46 -37 -25 0 -38 22 -21
39 15 15 67 14 67 -2z"/>
<path d="M1610 220 c0 -83 1 -90 20 -90 18 0 20 7 20 64 0 70 12 90 52 84 21
-3 23 -8 26 -75 3 -65 5 -73 22 -73 18 0 20 7 20 70 0 57 -4 74 -20 90 -24 24
-48 25 -78 4 -20 -14 -22 -14 -22 0 0 9 -9 16 -20 16 -19 0 -20 -7 -20 -90z"/>
</g>
</svg>
